<svg width="130" height="30" viewBox="0 0 130 30" fill="none" xmlns="http://www.w3.org/2000/svg">
<path d="M57.1177 26.7849C57.0642 26.7849 57.0221 26.7696 56.9915 26.7391C56.961 26.7085 56.9457 26.6665 56.9457 26.613V23.4604C56.9457 23.4222 56.9266 23.4031 56.8884 23.4031H56.0286C55.9751 23.4031 55.9331 23.3878 55.9025 23.3572C55.8719 23.3267 55.8566 23.2846 55.8566 23.2311V23.0592C55.8566 23.0057 55.8719 22.9636 55.9025 22.9331C55.9331 22.9025 55.9751 22.8872 56.0286 22.8872H58.4073C58.4608 22.8872 58.5029 22.9025 58.5334 22.9331C58.564 22.9636 58.5793 23.0057 58.5793 23.0592V23.2311C58.5793 23.2846 58.564 23.3267 58.5334 23.3572C58.5029 23.3878 58.4608 23.4031 58.4073 23.4031H57.5475C57.5093 23.4031 57.4902 23.4222 57.4902 23.4604V26.613C57.4902 26.6665 57.4749 26.7085 57.4444 26.7391C57.4138 26.7696 57.3718 26.7849 57.3183 26.7849H57.1177Z" fill="white"/>
<path d="M60.8556 26.7849C60.8021 26.7849 60.7601 26.7696 60.7295 26.7391C60.6989 26.7085 60.6837 26.6665 60.6837 26.613V23.0592C60.6837 23.0057 60.6989 22.9636 60.7295 22.9331C60.7601 22.9025 60.8021 22.8872 60.8556 22.8872H62.7471C62.8006 22.8872 62.8427 22.9025 62.8733 22.9331C62.9038 22.9636 62.9191 23.0057 62.9191 23.0592V23.2311C62.9191 23.2846 62.9038 23.3267 62.8733 23.3572C62.8427 23.3878 62.8006 23.4031 62.7471 23.4031H61.2855C61.2473 23.4031 61.2282 23.4222 61.2282 23.4604V24.4921C61.2282 24.5304 61.2473 24.5495 61.2855 24.5495H62.6325C62.686 24.5495 62.728 24.5648 62.7586 24.5953C62.7892 24.6259 62.8045 24.6679 62.8045 24.7214V24.8934C62.8045 24.9469 62.7892 24.9889 62.7586 25.0195C62.728 25.0501 62.686 25.0653 62.6325 25.0653H61.2855C61.2473 25.0653 61.2282 25.0844 61.2282 25.1227V26.2117C61.2282 26.2499 61.2473 26.2691 61.2855 26.2691H62.8618C62.9153 26.2691 62.9573 26.2843 62.9879 26.3149C63.0185 26.3455 63.0337 26.3875 63.0337 26.441V26.613C63.0337 26.6665 63.0185 26.7085 62.9879 26.7391C62.9573 26.7696 62.9153 26.7849 62.8618 26.7849H60.8556Z" fill="white"/>
<path d="M67.6286 26.1544C67.6668 26.1926 67.684 26.2346 67.6802 26.2805C67.6764 26.3263 67.6592 26.3645 67.6286 26.3951C67.5063 26.5174 67.363 26.6225 67.1987 26.7104C67.0344 26.7982 66.8223 26.8422 66.5625 26.8422C66.3752 26.8422 66.2014 26.8088 66.0409 26.7419C65.8804 26.675 65.7419 26.5814 65.6253 26.461C65.5088 26.3406 65.4171 26.1954 65.3502 26.0254C65.2833 25.8553 65.2499 25.6691 65.2499 25.4665V24.2055C65.2499 24.0068 65.2833 23.8224 65.3502 23.6524C65.4171 23.4823 65.5088 23.3371 65.6253 23.2167C65.7419 23.0964 65.8804 23.0018 66.0409 22.933C66.2014 22.8642 66.3752 22.8298 66.5625 22.8298C66.6886 22.8298 66.8032 22.8423 66.9064 22.8671C67.0096 22.8919 67.1032 22.9235 67.1873 22.9617C67.2713 22.9999 67.3449 23.0429 67.408 23.0906C67.471 23.1384 67.5235 23.1833 67.5656 23.2253C67.6458 23.3056 67.6458 23.3858 67.5656 23.4661L67.4337 23.5979C67.3955 23.6361 67.3592 23.6562 67.3248 23.6581C67.2904 23.66 67.2503 23.6399 67.2045 23.5979C67.1548 23.5521 67.0793 23.4986 66.9781 23.4374C66.8768 23.3763 66.7383 23.3457 66.5625 23.3457C66.4402 23.3457 66.3323 23.3677 66.2386 23.4116C66.145 23.4556 66.0648 23.5167 65.9979 23.595C65.931 23.6734 65.8804 23.7651 65.846 23.8702C65.8116 23.9753 65.7944 24.087 65.7944 24.2055V25.4665C65.7944 25.7226 65.8622 25.9299 65.9979 26.0884C66.1335 26.247 66.3218 26.3263 66.5625 26.3263C66.7306 26.3263 66.873 26.2948 66.9895 26.2317C67.1061 26.1687 67.2006 26.1047 67.2732 26.0397C67.3076 26.0092 67.3468 25.992 67.3908 25.9881C67.4347 25.9843 67.4758 26.0015 67.514 26.0397L67.6286 26.1544Z" fill="white"/>
<path d="M72.0586 26.7849C72.0051 26.7849 71.9631 26.7696 71.9325 26.7391C71.9019 26.7085 71.8867 26.6665 71.8867 26.613V25.1227C71.8867 25.0845 71.8676 25.0653 71.8294 25.0653H70.4823C70.4441 25.0653 70.425 25.0845 70.425 25.1227V26.613C70.425 26.6665 70.4097 26.7085 70.3792 26.7391C70.3486 26.7696 70.3066 26.7849 70.2531 26.7849H70.0524C69.9989 26.7849 69.9569 26.7696 69.9263 26.7391C69.8958 26.7085 69.8805 26.6665 69.8805 26.613V23.0592C69.8805 23.0057 69.8958 22.9636 69.9263 22.9331C69.9569 22.9025 69.9989 22.8872 70.0524 22.8872H70.2531C70.3066 22.8872 70.3486 22.9025 70.3792 22.9331C70.4097 22.9636 70.425 23.0057 70.425 23.0592V24.4922C70.425 24.5304 70.4441 24.5495 70.4823 24.5495H71.8294C71.8676 24.5495 71.8867 24.5304 71.8867 24.4922V23.0592C71.8867 23.0057 71.902 22.9636 71.9325 22.9331C71.9631 22.9025 72.0051 22.8872 72.0586 22.8872H72.2592C72.3127 22.8872 72.3548 22.9025 72.3853 22.9331C72.4159 22.9636 72.4312 23.0057 72.4312 23.0592V26.613C72.4312 26.6665 72.4159 26.7085 72.3853 26.7391C72.3548 26.7696 72.3127 26.7849 72.2592 26.7849H72.0586Z" fill="white"/>
<path d="M77.9589 26.0569C77.9971 26.0187 78.0382 26.0015 78.0821 26.0053C78.1261 26.0091 78.1653 26.0263 78.1997 26.0569C78.2302 26.0837 78.2646 26.1133 78.3028 26.1458C78.341 26.1782 78.385 26.2079 78.4347 26.2346C78.4843 26.2614 78.5417 26.2833 78.6066 26.3005C78.6716 26.3177 78.7461 26.3263 78.8302 26.3263C79.0136 26.3263 79.1645 26.2757 79.283 26.1744C79.4015 26.0732 79.4607 25.9461 79.4607 25.7932C79.4607 25.6213 79.4081 25.4837 79.3031 25.3805C79.198 25.2774 79.0308 25.1704 78.8015 25.0596C78.6563 24.9908 78.5254 24.9182 78.4089 24.8417C78.2923 24.7653 78.192 24.6793 78.1079 24.5838C78.0239 24.4883 77.9599 24.3803 77.9159 24.2599C77.872 24.1396 77.85 24.0011 77.85 23.8444C77.85 23.7145 77.8748 23.5884 77.9245 23.4661C77.9742 23.3438 78.0468 23.2358 78.1423 23.1422C78.2379 23.0486 78.3535 22.9731 78.4891 22.9158C78.6248 22.8585 78.7767 22.8298 78.9448 22.8298C79.1626 22.8298 79.3489 22.8719 79.5037 22.9559C79.6584 23.04 79.7817 23.1279 79.8734 23.2196C79.9536 23.2998 79.9536 23.3801 79.8734 23.4603L79.7415 23.5979C79.7033 23.6361 79.667 23.6562 79.6326 23.6581C79.5983 23.66 79.5581 23.6399 79.5123 23.5979C79.4626 23.5521 79.3862 23.4986 79.283 23.4374C79.1798 23.3763 79.0671 23.3457 78.9448 23.3457C78.8607 23.3457 78.7834 23.36 78.7127 23.3887C78.642 23.4173 78.5808 23.4546 78.5292 23.5005C78.4777 23.5463 78.4375 23.5989 78.4089 23.6581C78.3802 23.7173 78.3659 23.7794 78.3659 23.8444C78.3659 23.9284 78.3783 24.003 78.4031 24.0679C78.428 24.1329 78.4662 24.1931 78.5178 24.2485C78.5694 24.3039 78.6362 24.3564 78.7184 24.4061C78.8006 24.4558 78.9009 24.5055 79.0193 24.5551C79.176 24.6239 79.3155 24.6965 79.4378 24.7729C79.56 24.8494 79.6632 24.9344 79.7473 25.028C79.8314 25.1216 79.8954 25.2286 79.9393 25.349C79.9832 25.4694 80.0052 25.6079 80.0052 25.7646C80.0052 25.9098 79.9746 26.0473 79.9135 26.1773C79.8524 26.3072 79.7683 26.4209 79.6613 26.5183C79.5543 26.6158 79.4292 26.6941 79.2859 26.7533C79.1426 26.8126 78.9907 26.8422 78.8302 26.8422C78.5703 26.8422 78.3668 26.803 78.2197 26.7247C78.0726 26.6463 77.9436 26.546 77.8328 26.4237C77.8022 26.3932 77.785 26.355 77.7812 26.3091C77.7774 26.2633 77.7946 26.2212 77.8328 26.183L77.9589 26.0569Z" fill="white"/>
<path d="M84.9217 25.5238C84.9217 25.7187 84.8882 25.8974 84.8214 26.0598C84.7545 26.2222 84.6609 26.3607 84.5405 26.4754C84.4201 26.59 84.2778 26.6798 84.1135 26.7447C83.9492 26.8097 83.7696 26.8422 83.5747 26.8422C83.3798 26.8422 83.2002 26.8097 83.0359 26.7447C82.8715 26.6798 82.7292 26.59 82.6088 26.4754C82.4885 26.3607 82.3948 26.2222 82.328 26.0598C82.2611 25.8974 82.2277 25.7187 82.2277 25.5238V24.1482C82.2277 23.9533 82.2611 23.7747 82.328 23.6122C82.3948 23.4498 82.4885 23.3113 82.6088 23.1967C82.7292 23.082 82.8715 22.9922 83.0359 22.9273C83.2002 22.8623 83.3798 22.8298 83.5747 22.8298C83.7696 22.8298 83.9492 22.8623 84.1135 22.9273C84.2778 22.9922 84.4201 23.082 84.5405 23.1967C84.6609 23.3113 84.7545 23.4498 84.8214 23.6122C84.8882 23.7747 84.9217 23.9533 84.9217 24.1482V25.5238ZM84.3771 24.1482C84.3771 23.9189 84.3084 23.7278 84.1708 23.575C84.0332 23.4221 83.8345 23.3457 83.5747 23.3457C83.3148 23.3457 83.1161 23.4221 82.9786 23.575C82.841 23.7278 82.7722 23.9189 82.7722 24.1482V25.5238C82.7722 25.7531 82.841 25.9442 82.9786 26.097C83.1161 26.2499 83.3148 26.3263 83.5747 26.3263C83.8345 26.3263 84.0332 26.2499 84.1708 26.097C84.3084 25.9442 84.3771 25.7531 84.3771 25.5238V24.1482Z" fill="white"/>
<path d="M87.4467 26.7849C87.3932 26.7849 87.3511 26.7696 87.3206 26.7391C87.29 26.7085 87.2747 26.6665 87.2747 26.613V23.0592C87.2747 23.0057 87.29 22.9636 87.3206 22.9331C87.3511 22.9025 87.3932 22.8872 87.4467 22.8872H87.6473C87.7008 22.8872 87.7428 22.9025 87.7734 22.9331C87.804 22.9636 87.8193 23.0057 87.8193 23.0592V26.2117C87.8193 26.2499 87.8384 26.2691 87.8766 26.2691H89.4414C89.4949 26.2691 89.5369 26.2843 89.5675 26.3149C89.5981 26.3455 89.6134 26.3875 89.6134 26.441V26.613C89.6134 26.6665 89.5981 26.7085 89.5675 26.7391C89.5369 26.7696 89.4949 26.7849 89.4414 26.7849H87.4467Z" fill="white"/>
<path d="M93.8027 23.0592C93.8027 23.0057 93.818 22.9636 93.8485 22.9331C93.8791 22.9025 93.9211 22.8872 93.9746 22.8872H94.1753C94.2288 22.8872 94.2708 22.9025 94.3014 22.9331C94.3319 22.9636 94.3472 23.0057 94.3472 23.0592V25.5239C94.3472 25.7188 94.3138 25.8974 94.2469 26.0598C94.18 26.2222 94.0864 26.3608 93.966 26.4754C93.8457 26.59 93.7033 26.6798 93.539 26.7448C93.3747 26.8098 93.1951 26.8422 93.0002 26.8422C92.8053 26.8422 92.6257 26.8098 92.4614 26.7448C92.2971 26.6798 92.1547 26.59 92.0344 26.4754C91.914 26.3608 91.8204 26.2222 91.7535 26.0598C91.6866 25.8974 91.6532 25.7188 91.6532 25.5239V23.0592C91.6532 23.0057 91.6685 22.9636 91.6991 22.9331C91.7296 22.9025 91.7717 22.8872 91.8252 22.8872H92.0258C92.0793 22.8872 92.1213 22.9025 92.1519 22.9331C92.1824 22.9636 92.1977 23.0057 92.1977 23.0592V25.5239C92.1977 25.7532 92.2665 25.9442 92.4041 26.0971C92.5416 26.2499 92.7404 26.3264 93.0002 26.3264C93.26 26.3264 93.4588 26.2499 93.5963 26.0971C93.7339 25.9442 93.8027 25.7532 93.8027 25.5239L93.8027 23.0592Z" fill="white"/>
<path d="M97.6973 26.7849C97.6438 26.7849 97.6018 26.7696 97.5712 26.7391C97.5406 26.7085 97.5254 26.6665 97.5254 26.613V23.4604C97.5254 23.4222 97.5062 23.4031 97.468 23.4031H96.6082C96.5547 23.4031 96.5127 23.3878 96.4821 23.3572C96.4516 23.3267 96.4363 23.2846 96.4363 23.2311V23.0592C96.4363 23.0057 96.4516 22.9636 96.4821 22.9331C96.5127 22.9025 96.5547 22.8872 96.6082 22.8872H98.987C99.0405 22.8872 99.0825 22.9025 99.1131 22.9331C99.1437 22.9636 99.159 23.0057 99.159 23.0592V23.2311C99.159 23.2846 99.1437 23.3267 99.1131 23.3572C99.0825 23.3878 99.0405 23.4031 98.987 23.4031H98.1272C98.089 23.4031 98.0699 23.4222 98.0699 23.4604V26.613C98.0699 26.6665 98.0546 26.7085 98.024 26.7391C97.9935 26.7696 97.9514 26.7849 97.8979 26.7849H97.6973Z" fill="white"/>
<path d="M101.351 26.7849C101.298 26.7849 101.256 26.7696 101.225 26.7391C101.195 26.7085 101.179 26.6665 101.179 26.613V23.0592C101.179 23.0057 101.195 22.9636 101.225 22.9331C101.256 22.9025 101.298 22.8872 101.351 22.8872H101.552C101.606 22.8872 101.648 22.9025 101.678 22.9331C101.709 22.9636 101.724 23.0057 101.724 23.0592V26.613C101.724 26.6665 101.709 26.7085 101.678 26.7391C101.648 26.7696 101.606 26.7849 101.552 26.7849H101.351Z" fill="white"/>
<path d="M106.688 25.5238C106.688 25.7187 106.654 25.8974 106.587 26.0598C106.521 26.2222 106.427 26.3607 106.307 26.4754C106.186 26.59 106.044 26.6798 105.88 26.7447C105.715 26.8097 105.536 26.8422 105.341 26.8422C105.146 26.8422 104.966 26.8097 104.802 26.7447C104.638 26.6798 104.495 26.59 104.375 26.4754C104.255 26.3607 104.161 26.2222 104.094 26.0598C104.027 25.8974 103.994 25.7187 103.994 25.5238V24.1482C103.994 23.9533 104.027 23.7747 104.094 23.6122C104.161 23.4498 104.255 23.3113 104.375 23.1967C104.495 23.082 104.638 22.9922 104.802 22.9273C104.966 22.8623 105.146 22.8298 105.341 22.8298C105.536 22.8298 105.715 22.8623 105.88 22.9273C106.044 22.9922 106.186 23.082 106.307 23.1967C106.427 23.3113 106.521 23.4498 106.587 23.6122C106.654 23.7747 106.688 23.9533 106.688 24.1482V25.5238ZM106.143 24.1482C106.143 23.9189 106.074 23.7278 105.937 23.575C105.799 23.4221 105.601 23.3457 105.341 23.3457C105.081 23.3457 104.882 23.4221 104.745 23.575C104.607 23.7278 104.538 23.9189 104.538 24.1482V25.5238C104.538 25.7531 104.607 25.9442 104.745 26.097C104.882 26.2499 105.081 26.3263 105.341 26.3263C105.601 26.3263 105.799 26.2499 105.937 26.097C106.074 25.9442 106.143 25.7531 106.143 25.5238V24.1482Z" fill="white"/>
<path d="M111.377 26.7849C111.324 26.7849 111.281 26.7706 111.248 26.7419C111.216 26.7133 111.183 26.6703 111.148 26.613L109.692 24.0623C109.673 24.0317 109.653 24.0202 109.632 24.0279C109.611 24.0355 109.601 24.0546 109.601 24.0852V26.613C109.601 26.6665 109.585 26.7085 109.555 26.7391C109.524 26.7696 109.482 26.7849 109.429 26.7849H109.228C109.174 26.7849 109.132 26.7696 109.102 26.7391C109.071 26.7085 109.056 26.6665 109.056 26.613V23.0592C109.056 23.0057 109.071 22.9636 109.102 22.9331C109.132 22.9025 109.174 22.8872 109.228 22.8872H109.451C109.509 22.8872 109.557 22.8977 109.595 22.9187C109.633 22.9398 109.667 22.977 109.698 23.0305L111.091 25.4551C111.106 25.478 111.124 25.4876 111.145 25.4838C111.166 25.48 111.177 25.4628 111.177 25.4322V23.0592C111.177 23.0057 111.192 22.9636 111.223 22.9331C111.253 22.9025 111.295 22.8872 111.349 22.8872H111.549C111.603 22.8872 111.645 22.9025 111.675 22.9331C111.706 22.9636 111.721 23.0057 111.721 23.0592V26.613C111.721 26.6665 111.706 26.7085 111.675 26.7391C111.645 26.7696 111.603 26.7849 111.549 26.7849L111.377 26.7849Z" fill="white"/>
<path d="M114.195 26.0569C114.234 26.0187 114.275 26.0015 114.319 26.0053C114.362 26.0091 114.402 26.0263 114.436 26.0569C114.467 26.0837 114.501 26.1133 114.539 26.1458C114.577 26.1782 114.621 26.2079 114.671 26.2346C114.721 26.2614 114.778 26.2833 114.843 26.3005C114.908 26.3177 114.982 26.3263 115.067 26.3263C115.25 26.3263 115.401 26.2757 115.519 26.1744C115.638 26.0732 115.697 25.9461 115.697 25.7932C115.697 25.6213 115.645 25.4837 115.539 25.3805C115.434 25.2774 115.267 25.1704 115.038 25.0596C114.893 24.9908 114.762 24.9182 114.645 24.8417C114.529 24.7653 114.428 24.6793 114.344 24.5838C114.26 24.4883 114.196 24.3803 114.152 24.2599C114.108 24.1396 114.086 24.0011 114.086 23.8444C114.086 23.7145 114.111 23.5884 114.161 23.4661C114.211 23.3438 114.283 23.2358 114.379 23.1422C114.474 23.0486 114.59 22.9731 114.726 22.9158C114.861 22.8585 115.013 22.8298 115.181 22.8298C115.399 22.8298 115.585 22.8719 115.74 22.9559C115.895 23.04 116.018 23.1279 116.11 23.2196C116.19 23.2998 116.19 23.3801 116.11 23.4603L115.978 23.5979C115.94 23.6361 115.903 23.6562 115.869 23.6581C115.835 23.66 115.795 23.6399 115.749 23.5979C115.699 23.5521 115.623 23.4986 115.519 23.4374C115.416 23.3763 115.303 23.3457 115.181 23.3457C115.097 23.3457 115.02 23.36 114.949 23.3887C114.878 23.4173 114.817 23.4546 114.766 23.5005C114.714 23.5463 114.674 23.5989 114.645 23.6581C114.617 23.7173 114.602 23.7794 114.602 23.8444C114.602 23.9284 114.615 24.003 114.64 24.0679C114.664 24.1329 114.703 24.1931 114.754 24.2485C114.806 24.3039 114.873 24.3564 114.955 24.4061C115.037 24.4558 115.137 24.5055 115.256 24.5551C115.412 24.6239 115.552 24.6965 115.674 24.7729C115.796 24.8494 115.9 24.9344 115.984 25.028C116.068 25.1216 116.132 25.2286 116.176 25.349C116.22 25.4694 116.242 25.6079 116.242 25.7646C116.242 25.9098 116.211 26.0473 116.15 26.1773C116.089 26.3072 116.005 26.4209 115.898 26.5183C115.791 26.6158 115.666 26.6941 115.522 26.7533C115.379 26.8126 115.227 26.8422 115.067 26.8422C114.807 26.8422 114.603 26.803 114.456 26.7247C114.309 26.6463 114.18 26.546 114.069 26.4237C114.039 26.3932 114.021 26.355 114.018 26.3091C114.014 26.2633 114.031 26.2212 114.069 26.183L114.195 26.0569Z" fill="white"/>
<path d="M56.754 13.5847V19.033H55.8567V13.5847C55.4863 12.9579 55.0519 12.2208 54.5534 11.3733C54.0548 10.5258 53.5491 9.65332 53.0364 8.75595C52.5236 7.85858 52.0179 6.98614 51.5194 6.13862C51.0208 5.29111 50.5864 4.55398 50.2161 3.92725H51.2203C51.5621 4.497 51.936 5.12374 52.342 5.80745C52.7479 6.49116 53.161 7.19624 53.5812 7.92268C54.0014 8.64912 54.4216 9.37913 54.8418 10.1127C55.262 10.8463 55.6644 11.5478 56.049 12.2172L56.3267 12.8155L56.5618 12.2172C56.9463 11.5478 57.3523 10.8463 57.7796 10.1127C58.2069 9.37913 58.6271 8.64912 59.0402 7.92268C59.4533 7.19624 59.8592 6.49116 60.2581 5.80745C60.6569 5.12374 61.0272 4.497 61.3691 3.92725H62.3733L56.754 13.5847Z" fill="white"/>
<path d="M76.1151 19.033C75.7448 18.1356 75.3495 17.167 74.9293 16.1272C74.5091 15.0874 74.0854 14.012 73.6581 12.9009H67.5474C67.1201 14.012 66.6999 15.0874 66.2868 16.1272C65.8737 17.167 65.482 18.1356 65.1117 19.033H64.2143C64.5134 18.335 64.8375 17.5587 65.1864 16.7041C65.5354 15.8494 65.8986 14.9521 66.2761 14.012C66.6536 13.0719 67.0346 12.114 67.4192 11.1383C67.8038 10.1625 68.1848 9.20464 68.5623 8.26454C68.9397 7.32443 69.3029 6.4235 69.6519 5.56174C70.0009 4.69998 70.325 3.92012 70.6241 3.22217C70.909 3.92012 71.2259 4.69998 71.5749 5.56174C71.9238 6.4235 72.2871 7.32443 72.6645 8.26454C73.042 9.20464 73.423 10.1625 73.8076 11.1383C74.1922 12.114 74.5732 13.0719 74.9507 14.012C75.3281 14.9521 75.6914 15.8494 76.0403 16.7041C76.3893 17.5587 76.7134 18.335 77.0125 19.033H76.1151ZM70.4104 5.72198C70.0116 6.66209 69.5985 7.67697 69.1712 8.76663C68.7439 9.8563 68.3023 10.978 67.8465 12.1318H73.3589C72.9174 10.978 72.4794 9.8563 72.0449 8.76663C71.6105 7.67697 71.201 6.66209 70.8164 5.72198L70.6241 5.10237C70.5956 5.21633 70.56 5.33028 70.5173 5.44423C70.4745 5.55818 70.4389 5.65076 70.4104 5.72198Z" fill="white"/>
<path d="M82.1225 3.92713H91.9936L81.567 18.1782H92.5491V19.0329H80.0287C80.7551 18.0215 81.5706 16.882 82.4751 15.6143C83.3796 14.3466 84.3019 13.0611 85.242 11.7578C86.1821 10.4544 87.1044 9.18316 88.0089 7.94393C88.9134 6.7047 89.7288 5.60792 90.4553 4.65358H82.0798C81.624 4.65358 81.2679 4.57879 81.0115 4.42923C80.7551 4.27967 80.6269 3.99835 80.6269 3.58528V3.15796H81.4816V3.43572C81.4816 3.5924 81.5279 3.71347 81.6204 3.79894C81.713 3.8844 81.8804 3.92713 82.1225 3.92713Z" fill="white"/>
<path d="M95.9713 11.4906C95.9713 10.4223 96.1742 9.42164 96.5802 8.48866C96.9861 7.55568 97.5345 6.73665 98.2254 6.03157C98.9162 5.3265 99.7281 4.77099 100.661 4.36504C101.594 3.95908 102.595 3.7561 103.663 3.7561C104.731 3.7561 105.735 3.95908 106.676 4.36504C107.616 4.77099 108.438 5.3265 109.143 6.03157C109.848 6.73665 110.404 7.55568 110.81 8.48866C111.216 9.42164 111.419 10.4223 111.419 11.4906C111.419 12.5589 111.216 13.5595 110.81 14.4925C110.404 15.4255 109.848 16.2409 109.143 16.9389C108.438 17.6369 107.616 18.1888 106.676 18.5948C105.735 19.0007 104.731 19.2037 103.663 19.2037C102.595 19.2037 101.594 19.0007 100.661 18.5948C99.7281 18.1888 98.9162 17.6369 98.2254 16.9389C97.5345 16.2409 96.9861 15.4255 96.5802 14.4925C96.1742 13.5595 95.9713 12.5589 95.9713 11.4906ZM96.8473 11.5119C96.8473 12.452 97.0253 13.3387 97.3814 14.172C97.7375 15.0053 98.2254 15.7317 98.845 16.3513C99.4646 16.9709 100.184 17.4624 101.003 17.8256C101.822 18.1888 102.702 18.3704 103.642 18.3704C104.582 18.3704 105.472 18.1888 106.312 17.8256C107.153 17.4624 107.886 16.9709 108.513 16.3513C109.14 15.7317 109.635 15.0053 109.998 14.172C110.361 13.3387 110.543 12.4449 110.543 11.4906C110.543 10.5505 110.361 9.66023 109.998 8.81983C109.635 7.97944 109.143 7.24943 108.524 6.62982C107.904 6.01021 107.178 5.5188 106.344 5.15558C105.511 4.79236 104.624 4.61074 103.684 4.61074C102.744 4.61074 101.858 4.79236 101.024 5.15558C100.191 5.5188 99.4646 6.01378 98.845 6.64051C98.2254 7.26724 97.7375 7.99725 97.3814 8.83052C97.0253 9.66379 96.8473 10.5576 96.8473 11.5119Z" fill="white"/>
<path d="M129.776 3.92724V19.7167C128.964 18.7054 128.052 17.6014 127.041 16.405C126.03 15.2085 125.008 13.9906 123.975 12.7514C122.942 11.5122 121.942 10.2979 120.973 9.10849C120.004 7.91912 119.15 6.83301 118.409 5.85018L118.003 5.29467L118.067 5.97838V19.033H117.17V3.22217C117.996 4.26198 118.904 5.38013 119.894 6.57662C120.884 7.77312 121.892 8.98386 122.917 10.2088C123.943 11.4338 124.943 12.6374 125.919 13.8197C126.895 15.0019 127.774 16.0916 128.558 17.0887L128.964 17.6442L128.9 16.9605V3.92724H129.776Z" fill="white"/>
<path fill-rule="evenodd" clip-rule="evenodd" d="M0 15C0 6.71579 6.71571 0 15 0C18.4936 0 21.7083 1.19444 24.258 3.19709C22.3163 2.11595 20.0801 1.49993 17.7 1.49993C10.2442 1.49993 4.2 7.54414 4.2 15C4.2 22.4558 10.2442 28.5 17.7 28.5C20.0801 28.5 22.3163 27.8841 24.258 26.8029C21.7083 28.8056 18.4936 30 15 30C6.71571 30 0 23.2843 0 15ZM30.2579 15C30.2579 21.6274 24.8854 27 18.258 27C15.4631 27 12.8913 26.0445 10.8516 24.4423C12.4049 25.3073 14.1939 25.8 16.098 25.8C22.0626 25.8 26.898 20.9647 26.898 15C26.898 9.03535 22.0626 4.20001 16.098 4.20001C14.1939 4.20001 12.4049 4.69266 10.8516 5.5576C12.8913 3.95545 15.4631 3.00003 18.258 3.00003C24.8854 3.00003 30.2579 8.37249 30.2579 15ZM9.19706 8.18181L13.4068 16.5812V21.8182H16.7101V16.7624L21.0609 8.18181H17.5964L15.1189 13.3987L12.7018 8.18181H9.19706Z" fill="white"/>
<path d="M38.2411 30V0H38.6204V30H38.2411Z" fill="white"/>
</svg>
